<?xml version="1.0" encoding="iso-8859-1"?>
<!-- Uploaded to: SVG Repo, www.svgrepo.com, Generator: SVG Repo Mixer Tools -->
<!DOCTYPE svg PUBLIC "-//W3C//DTD SVG 1.1//EN" "http://www.w3.org/Graphics/SVG/1.1/DTD/svg11.dtd">
<svg fill="#000000" version="1.1" id="Capa_1" xmlns="http://www.w3.org/2000/svg" xmlns:xlink="http://www.w3.org/1999/xlink" 
	 width="800px" height="800px" viewBox="0 0 447.879 447.879"
	 xml:space="preserve">
<g>
	<g>
		<path d="M434.91,435.379V12.5c0-6.903-5.596-12.5-12.5-12.5h-96.238c-6.904,0-12.5,5.597-12.5,12.5v155.059h-28.305L160.55,81.982
			c-3.828-2.624-8.791-2.913-12.895-0.749c-4.104,2.162-6.673,6.42-6.673,11.059v64.041L32.538,81.981
			c-3.827-2.624-8.792-2.913-12.895-0.749c-4.104,2.162-6.674,6.42-6.674,11.059v343.088c0,6.902,5.597,12.5,12.5,12.5H422.41
			C429.314,447.879,434.91,442.281,434.91,435.379z M409.91,422.879H37.969V116.017l108.443,74.351
			c3.826,2.623,8.791,2.911,12.895,0.75c4.104-2.163,6.674-6.42,6.674-11.06v-64.041l108.443,74.351
			c2.082,1.427,4.545,2.19,7.068,2.19h44.678c6.904,0,12.5-5.597,12.5-12.5V25h71.24V422.879L409.91,422.879z"/>
		<path d="M167.724,216.636H75.97c-6.903,0-12.5,5.597-12.5,12.5V291.4c0,6.902,5.597,12.5,12.5,12.5h91.754
			c6.903,0,12.5-5.598,12.5-12.5v-62.264C180.224,222.233,174.628,216.636,167.724,216.636z M155.224,278.9H88.47v-37.264h66.754
			V278.9z"/>
		<path d="M311.91,216.636h-91.755c-6.903,0-12.5,5.597-12.5,12.5V291.4c0,6.902,5.597,12.5,12.5,12.5h91.755
			c6.902,0,12.5-5.598,12.5-12.5v-62.264C324.41,222.233,318.812,216.636,311.91,216.636z M299.41,278.9h-66.756v-37.264h66.756
			V278.9z"/>
	</g>
</g>
</svg>
