<?xml version="1.0" encoding="utf-8"?>
<!-- Generator: Custom SVG based on Adobe Illustrator 22.1.0 -->
<svg version="1.1" id="Ebene_1" xmlns="http://www.w3.org/2000/svg" xmlns:xlink="http://www.w3.org/1999/xlink" x="0px" y="0px"
     width="24px" height="24px" viewBox="0 0 24 24" enable-background="new 0 0 24 24" xml:space="preserve">
<path fill="none" d="M0,0h24v24H0V0z"/>
<path fill="#A3A5A7" d="M3,20h18v-4H3V20z M4,17h2v2H4V17z M3,4v4h18V4H3z M6,7H4V5h2V7z M3,14h18v-4H3V14z M4,11h2v2H4V11z"/>
<circle fill="#FF0000" cx="18" cy="18" r="6"/>
<polygon fill="#FFFFFF" points="16.5,15.5 18,17 19.5,15.5 21,17 19.5,18.5 21,20 19.5,21.5 18,20 16.5,21.5 15,20 16.5,18.5 15,17"/>
</svg>
